<svg width="128" height="112" viewBox="0 0 128 112" xmlns="http://www.w3.org/2000/svg">
  <!-- Hexagon Path -->
  <path d="M64 0L128 32V80L64 112L0 80V32L64 0Z" fill="#2d6a4f"/>
  
  <!-- Shading for 2.5D effect -->
  <path d="M64 0L128 32V80L64 112V0Z" fill="#1b4332" fill-opacity="0.3"/>
  
  <!-- Tree elements -->
  <g>
    <!-- Tree 1 -->
    <rect x="40" y="55" width="8" height="15" fill="#774936"/>
    <polygon points="32,55 56,55 44,25" fill="#52b788"/>
    
    <!-- Tree 2 -->
    <rect x="75" y="60" width="8" height="15" fill="#774936"/>
    <polygon points="67,60 91,60 79,30" fill="#52b788"/>
    
    <!-- Tree 3 -->
    <rect x="55" y="45" width="6" height="12" fill="#774936"/>
    <polygon points="49,45 67,45 58,20" fill="#52b788"/>
  </g>
  
  <!-- Outline -->
  <path d="M64 0L128 32V80L64 112L0 80V32L64 0Z" fill="none" stroke="#1b4332" stroke-width="2"/>
</svg>
