<svg width="128" height="112" viewBox="0 0 128 112" xmlns="http://www.w3.org/2000/svg">
  <!-- Hexagon Path -->
  <path d="M64 0L128 32V80L64 112L0 80V32L64 0Z" fill="#9a8c98"/>
  
  <!-- Shading for 2.5D effect -->
  <path d="M64 0L128 32V80L64 112V0Z" fill="#7d7282" fill-opacity="0.3"/>
  
  <!-- Mountain peaks -->
  <polygon points="35,75 50,35 65,75" fill="#4a4e69"/>
  <polygon points="60,80 85,25 110,80" fill="#4a4e69"/>
  
  <!-- Snow caps -->
  <polygon points="50,35 57,45 43,45" fill="#f8f9fa"/>
  <polygon points="85,25 92,40 78,40" fill="#f8f9fa"/>
  
  <!-- Ground details -->
  <circle cx="40" cy="85" r="3" fill="#4a4e69"/>
  <circle cx="80" cy="88" r="4" fill="#4a4e69"/>
  
  <!-- Outline -->
  <path d="M64 0L128 32V80L64 112L0 80V32L64 0Z" fill="none" stroke="#6c6570" stroke-width="2"/>
</svg>
