<svg width="128" height="112" viewBox="0 0 128 112" xmlns="http://www.w3.org/2000/svg">
  <!-- Hexagon Path - mostly transparent -->
  <path d="M64 0L128 32V80L64 112L0 80V32L64 0Z" fill="none"/>
  
  <!-- Ruins structure -->
  <g transform="translate(64, 56)">
    <!-- Base/foundation -->
    <rect x="-25" y="10" width="50" height="5" fill="#6c757d"/>
    
    <!-- Broken columns -->
    <g>
      <!-- Left column -->
      <rect x="-20" y="-15" width="8" height="25" fill="#adb5bd"/>
      <rect x="-22" y="-15" width="12" height="3" fill="#ced4da"/>
      
      <!-- Middle broken column -->
      <rect x="-4" y="0" width="8" height="10" fill="#adb5bd"/>
      <rect x="-6" y="0" width="12" height="3" fill="#ced4da"/>
      
      <!-- Right column -->
      <rect x="12" y="-10" width="8" height="20" fill="#adb5bd"/>
      <rect x="10" y="-10" width="12" height="3" fill="#ced4da"/>
    </g>
    
    <!-- Fallen stone blocks -->
    <rect x="-10" y="5" width="10" height="5" transform="rotate(15)" fill="#adb5bd"/>
    <rect x="5" y="8" width="12" height="4" transform="rotate(-5)" fill="#adb5bd"/>
    
    <!-- Architectural details -->
    <rect x="-20" y="-18" width="8" height="3" fill="#ced4da"/>
    <rect x="12" y="-13" width="8" height="3" fill="#ced4da"/>
    
    <!-- Weathering/erosion details -->
    <line x1="-18" y1="-5" x2="-14" y2="-5" stroke="#6c757d" stroke-width="1"/>
    <line x1="13" y1="-3" x2="19" y2="-3" stroke="#6c757d" stroke-width="1"/>
    <line x1="-3" y1="2" x2="1" y2="2" stroke="#6c757d" stroke-width="1"/>
  </g>
</svg>
