<svg width="128" height="112" viewBox="0 0 128 112" xmlns="http://www.w3.org/2000/svg">
  <!-- Hexagon Path - mostly transparent -->
  <path d="M64 0L128 32V80L64 112L0 80V32L64 0Z" fill="none"/>
  
  <!-- Village buildings -->
  <g transform="translate(64, 56)">
    <!-- Main house -->
    <g transform="translate(-15, 0)">
      <!-- House body -->
      <rect x="-10" y="-10" width="20" height="15" fill="#e76f51"/>
      
      <!-- Roof -->
      <polygon points="-12,-10 12,-10 0,-22" fill="#774936"/>
      
      <!-- Door -->
      <rect x="-3" y="0" width="6" height="5" fill="#774936"/>
      
      <!-- Window -->
      <rect x="-8" y="-6" width="4" height="4" fill="#f4f1de"/>
      <rect x="4" y="-6" width="4" height="4" fill="#f4f1de"/>
    </g>
    
    <!-- Smaller house -->
    <g transform="translate(10, 5)">
      <!-- House body -->
      <rect x="-7" y="-8" width="14" height="12" fill="#f4a261"/>
      
      <!-- Roof -->
      <polygon points="-9,-8 9,-8 0,-16" fill="#774936"/>
      
      <!-- Door -->
      <rect x="-2" y="0" width="4" height="4" fill="#774936"/>
      
      <!-- Window -->
      <rect x="2" y="-5" width="3" height="3" fill="#f4f1de"/>
    </g>
    
    <!-- Tiny hut -->
    <g transform="translate(12, -10) scale(0.7)">
      <!-- Hut body -->
      <rect x="-5" y="-5" width="10" height="10" fill="#e9c46a"/>
      
      <!-- Roof -->
      <polygon points="-6,-5 6,-5 0,-12" fill="#774936"/>
      
      <!-- Door -->
      <rect x="-1.5" y="1" width="3" height="4" fill="#774936"/>
    </g>
    
    <!-- Farm patch -->
    <g transform="translate(-5, -15)">
      <rect x="-5" y="-3" width="10" height="6" fill="#76520e"/>
      <line x1="-4" y1="-2" x2="4" y2="-2" stroke="#81b29a" stroke-width="1"/>
      <line x1="-4" y1="0" x2="4" y2="0" stroke="#81b29a" stroke-width="1"/>
      <line x1="-4" y1="2" x2="4" y2="2" stroke="#81b29a" stroke-width="1"/>
    </g>
  </g>
</svg>
