<svg width="128" height="112" viewBox="0 0 128 112" xmlns="http://www.w3.org/2000/svg">
  <!-- Hexagon Path -->
  <path d="M64 0L128 32V80L64 112L0 80V32L64 0Z" fill="#219ebc"/>
  
  <!-- Shading for 2.5D effect -->
  <path d="M64 0L128 32V80L64 112V0Z" fill="#1a8aa4" fill-opacity="0.3"/>
  
  <!-- Wave details -->
  <path d="M30,60 Q45,55 60,60 T90,60" fill="none" stroke="#8ecae6" stroke-width="2"/>
  <path d="M40,70 Q55,65 70,70 T100,70" fill="none" stroke="#8ecae6" stroke-width="2"/>
  <path d="M20,50 Q35,45 50,50 T80,50" fill="none" stroke="#8ecae6" stroke-width="2"/>
  
  <!-- Highlights -->
  <circle cx="35" cy="45" r="2" fill="#8ecae6"/>
  <circle cx="65" cy="55" r="3" fill="#8ecae6"/>
  <circle cx="90" cy="65" r="2" fill="#8ecae6"/>
  
  <!-- Outline -->
  <path d="M64 0L128 32V80L64 112L0 80V32L64 0Z" fill="none" stroke="#1a759f" stroke-width="2"/>
</svg>
